# xmcd
#
# Track frame offsets: 
#        150
#        23456
#        43537
#        71824
#        101606
#        119363
#        138752
#        154441
#        173301
#        199069
#        227092
#        249507
#        268005
#        289364
#        304854
#        326238
#
# Disc length: 4786 seconds
#
# Revision: 2
# Processed by: cddbd v1.5.2PL0 Copyright (c) Steve Scherf et al.
# Submitted via: ExactAudioCopy v1.3
#
DISCID=e212b010
DTITLE=Various Artist - Akella Presents - vol.38 - Blues Rock  CD2
DYEAR=2014
DGENRE=Blues Rock
TTITLE0=Mammothor - Slave One Day
TTITLE1=The Blues Mystery - Let Me Smoke My Cigar In Peace
TTITLE2=Steve Johnson - Shame And A Sin
TTITLE3=Albany Down - You Ain't Coming Home
TTITLE4=The Joe Richardson Express - Greyhound Bus
TTITLE5=Sunset Heights - Dangerous Moves
TTITLE6=Zed Head - Cock of the Rock
TTITLE7=The Stone Foxes - Sweep A Road
TTITLE8=ZZ Top - Cover Your Rig
TTITLE9=Rob Orlemans and Half Past Midnight - Night Bird
TTITLE10=Toronzo Cannon - Sweet Sweet Sweet
TTITLE11=Dirty Dave Osti - Old Man Blue
TTITLE12=David Shelley and Bluestone - Blackwater River
TTITLE13=Husky Burnette - Beat and Lowdown
TTITLE14=Jay Jesse Johnson - I've Got An Ax To Grind
TTITLE15=Paul Camilleri - On My Own
EXTD=
EXTT0=
EXTT1=
EXTT2=
EXTT3=
EXTT4=
EXTT5=
EXTT6=
EXTT7=
EXTT8=
EXTT9=
EXTT10=
EXTT11=
EXTT12=
EXTT13=
EXTT14=
EXTT15=
PLAYORDER=
